<svg xmlns="http://www.w3.org/2000/svg" version="1.1" xmlns:xlink="http://www.w3.org/1999/xlink" xmlns:svgjs="http://svgjs.dev/svgjs" width="1500" height="1500" viewBox="0 0 1500 1500"><rect width="1500" height="1500" fill="#f9f6ed"></rect><g transform="matrix(0.6666666666666666,0,0,0.6666666666666666,248.44244080996884,189.33333333333348)"><svg viewBox="0 0 321 360" data-background-color="#f9f6ed" preserveAspectRatio="xMidYMid meet" height="1682" width="1500" xmlns="http://www.w3.org/2000/svg" xmlns:xlink="http://www.w3.org/1999/xlink"><g id="tight-bounds" transform="matrix(1,0,0,1,0.5000234999999975,0)"><svg viewBox="0 0 320 360" height="360" width="320"><g><svg></svg></g><g><svg viewBox="0 0 320 360" height="360" width="320"><g><path transform="translate(-74.99272,-51.79039) scale(4.65793,4.65793)" d="M20.6 59.9l0.8 1-0.4-1.3c-0.1-0.6-0.8 0.1-0.4 0.3M21.5 59.3c0.3 0.5 0.6 1 0.6 1.5 0 0.7 0.6 1 1.1 1.2-0.7-0.8-1.1-3-1.7-2.7M59.9 16.9c1.7 0 3.3-0.2 5.1 0.2 4.4 1.1 8.1 3.3 10.6 6.4l7 11.2c0.3 2.8 0.9 5.9 0.8 9.3 0.7 0 0.6-1 1.4-1.2-0.8 2-1.2 4.5-1.4 7.4-0.5-1.6 0-4 0.1-5.3-0.7 1.1-1.1 0.3-1.1-0.2 0.1-0.8-0.3-0.7-0.6-1-1.1-1-1.8-2.1-2.6-3.8 0.5-1.3 0.6-3.2-1-4.2-0.5-0.3-1.1-0.8-1.4-1.6-0.4-1.1-1.1-2.4-0.9-4.1 0.1-0.5-1.5 1.1-2.4 0.4-3.9-2.7-7.8-5.8-12.5-8.4-2.5 0-4.3-0.9-5.2-2-0.8-1-0.2-2.3 1-2.4 0.7 0 1.5-0.2 2.1 0.2 0.1-0.4 0.5-0.9 1-0.9M50 14.6l0.2 0.1c1 0.2 1.5 1.6 2.6 1.1 0 0.7 0.1 1.4-0.1 1.9-0.3 0.8-1.2 0.8-1.9 0.8-6.7-0.4-10.6 2.4-14.7 4.8-1.1 0.7-2.3 1.2-3.2 2.1-4.3 4-9 7.7-10.1 15.1l-0.9 8.2c-0.1 0.9-1.1 1.8-0.9 2.9l0.7 4.9c-0.7-0.7-1.1 0.2-0.9 0.6 0.1 0.3 0.5 1.3 1.1 0.4 0.8 1.5 1.6 4.4 2.7 5.7 3.4 4 7.8 7.6 11.4 11.2 0.9-0.2 1.6-0.2 1.8-0.8 0.3 0.6-0.3 1.2-0.8 1.3 1.6 1 3.4 1.9 5.8 2.1 3.1 0.2 6 0.7 8.7 1.4 1.4-0.4 2.8-0.6 4.3-0.7 0.5 0 0.8-0.8 1.4-1l0.1-1c0.6 0.9 0.5-0.3 0.1-0.9 0.7 0.6 0.9 1.1 1.2 1.5 0-0.3 0.8-1.4 0.8-0.1l0.2-1.3c0.3-0.2 0.4 1.1 0.7 0.2 0.3-0.9 0.9-0.2 1.5-0.5-0.2 0.4-0.1 1.2 0.6 0.7l0.8-0.7c0.5 1.2 1.3 0.7 1.7 0.5 4.4-2.8 8.8-6.1 13-9.4l-0.1 1.3 0.5-1.6c0.5 0.5 0.9 0.1 1.1-0.2 0.6-1 1.4-2 2.7-2.9-1.6 4.3-3.5 7.7-5.9 10.5l-1 1.2c0 0.7-0.2 1.6-1 1.7-0.4 0.1-1.2-0.2-1.8 0.4-0.3 0.4 0.7 1.2-0.1 0.6-0.7-0.5-1.4 0-2.2 0.2-0.6 0.2 0.4 0.8 0.6 1.2 0.2 0.4 0.4 0.8 0.3 1.3l-1.1-1.2c-1.3 0.7-2.1 2-3.2 3-0.5 0.4-0.3 1.1-0.3 1.7-0.7 0-1.5-0.2-1.9 0.2-0.3 0.4-0.2 1-0.2 1.6-1-0.1-1.1-1.6-2-1.3-0.9 0.2-1.9 0.3-2.7 0.8 0.6 1.2-1 0.5-0.8 0.7-1.5-0.9-2.8-1.6-4.4-1-3.4-1.1-7.6-0.6-10.7-0.2 0-0.5 0.1-1-0.1-1.1-0.2 0.5-0.8 0.3-0.7 0.3-1.9-1.3-3.8-2.1-5.8-3.2-1.8 0.2-3.5-0.7-4-1.2-1.4-1.3-3-0.6-4.3-0.9-2.8-0.7-3.8-3.6-4.1-5.6-0.2-1-1-1.4-1.3-1.3-1.3-4.2-3.3-8-4.9-11.9-0.4-1-0.3-2-0.3-3.1 0.5 0.2 1 0.1 0.9-0.6-0.5-3.3-1.7-5.8-3-8.2 0.7-3.4 0.8-7.4 2.4-10.4 1.4-2.7 4-4.1 5.8-6.4 0.6-0.8 0.6-1.9 1.2-2.6 2-2 4-4.1 6.2-5.9 1-0.8 2.2 0 3.7-0.3 0.5-1.8 2.5-3.4 4.4-2.9 0.8 0.2 2.4-1.9 2.9-2.1 0.8-0.3 0.4 0.8 0.4 1.5 1.9-1.5 4.5-2.3 6.9-3.2" fill="#21272d" fill-rule="nonzero" stroke="none" stroke-width="1" stroke-linecap="butt" stroke-linejoin="miter" stroke-miterlimit="10" stroke-dasharray="" stroke-dashoffset="0" font-family="none" font-weight="none" font-size="none" text-anchor="none" style="mix-blend-mode: normal" data-fill-palette-color="tertiary"></path></g><g transform="matrix(1,0,0,1,64,128.30737929406303)"><svg viewBox="0 0 192 103.38524141187392" height="103.38524141187392" width="192"><g><svg viewBox="0 0 192 103.38524141187392" height="103.38524141187392" width="192"><g><svg viewBox="0 0 192 103.38524141187392" height="103.38524141187392" width="192"><g transform="matrix(1,0,0,1,0,61.45922459117881)"><svg viewBox="0 0 192 41.92601682069511" height="41.92601682069511" width="192"><g id="textblocktransform"><svg viewBox="0 0 192 41.92601682069511" height="41.92601682069511" width="192" id="textblock"><g><svg viewBox="0 0 192 24.104803493449776" height="24.104803493449776" width="192"><g transform="matrix(1,0,0,1,0,0)"><svg width="192" viewBox="3.05 -35.5 366.34999999999997 46" height="24.104803493449776" data-palette-color="#21272d"><path d="M3.05 0L3.05-25.05 5.85-25.05 5.7-23.3Q8.05-25.5 11.85-25.5L11.85-25.5Q13.2-25.5 15.55-25.05L15.55-25.05 14.8-22.5Q13.2-23 11.45-23L11.45-23Q9.15-23 7.5-22.15 5.85-21.3 5.85-19.6L5.85-19.6 5.85 0 3.05 0ZM32.85-1.75Q31.05-0.6 28.75 0 26.45 0.6 24.15 0.6L24.15 0.6Q20.45 0.6 18.27-1.23 16.1-3.05 16.1-6.7L16.1-6.7 16.1-16.95Q16.1-21 18.62-23.25 21.15-25.5 25.3-25.5L25.3-25.5Q29.45-25.5 31.77-23.28 34.1-21.05 34.1-17.1L34.1-17.1 34.1-10.6 18.9-9.75 18.9-6.7Q18.9-4.3 20.45-3.1 22-1.9 24.5-1.9L24.5-1.9Q28-1.9 31.75-3.9L31.75-3.9 32.85-1.75ZM31.3-17.45Q31.3-20.55 29.35-21.83 27.4-23.1 25.25-23.1L25.25-23.1Q22.5-23.1 20.7-21.6 18.9-20.1 18.9-16.9L18.9-16.9 18.9-12.5 31.3-13.1 31.3-17.45ZM57.15 0Q51.75 0.55 49.35 0.55L49.35 0.55Q44.1 0.55 41-1.4 37.9-3.35 37.9-8.45L37.9-8.45 37.9-12.6Q37.9-17.55 41.35-19.25L41.35-19.25Q43-20.1 45.55-20.1L45.55-20.1Q47.9-20.1 50.3-19.33 52.7-18.55 54.35-17.3L54.35-17.3Q54.35-20.05 52.75-21.68 51.15-23.3 46.6-23.3L46.6-23.3 46.75-25.45Q51.55-25.45 53.82-23.93 56.1-22.4 56.62-20.3 57.15-18.2 57.15-14.9L57.15-14.9 57.15 0ZM54.35-15.15Q52.3-16.1 49.97-16.8 47.65-17.5 45.7-17.5L45.7-17.5Q40.65-17.5 40.65-12.45L40.65-12.45 40.65-8.1Q40.65-4.85 42.9-3.38 45.15-1.9 49.3-1.9L49.3-1.9Q51.45-1.9 54.35-2.3L54.35-2.3 54.35-15.15ZM62.84 0L62.84-35 65.64-35 65.64 0 62.84 0ZM77.14 0.65Q74.34-0.15 73.09-1.9 71.84-3.65 71.84-6.6L71.84-6.6 71.84-35 74.64-35 74.64-25.05 80.64-25.05 79.44-22.4 74.64-22.4 74.64-6.6Q74.64-2.6 77.94-1.5L77.94-1.5 77.14 0.65ZM87.39-32.15Q86.74-32.15 86.21-32.68 85.69-33.2 85.69-33.85L85.69-33.85Q85.69-34.5 86.19-35 86.69-35.5 87.39-35.5L87.39-35.5Q88.09-35.5 88.56-35.02 89.04-34.55 89.04-33.85L89.04-33.85Q89.04-33.15 88.54-32.65 88.04-32.15 87.39-32.15L87.39-32.15ZM85.94 0L85.94-25.05 88.74-25.05 88.74 0 85.94 0ZM125.43-1.75Q123.63-0.6 121.33 0 119.03 0.6 116.73 0.6L116.73 0.6Q113.03 0.6 110.86-1.23 108.68-3.05 108.68-6.7L108.68-6.7 108.68-16.95Q108.68-21 111.21-23.25 113.73-25.5 117.88-25.5L117.88-25.5Q122.03-25.5 124.36-23.28 126.68-21.05 126.68-17.1L126.68-17.1 126.68-10.6 111.48-9.75 111.48-6.7Q111.48-4.3 113.03-3.1 114.58-1.9 117.08-1.9L117.08-1.9Q120.58-1.9 124.33-3.9L124.33-3.9 125.43-1.75ZM123.88-17.45Q123.88-20.55 121.93-21.83 119.98-23.1 117.83-23.1L117.83-23.1Q115.08-23.1 113.28-21.6 111.48-20.1 111.48-16.9L111.48-16.9 111.48-12.5 123.88-13.1 123.88-17.45ZM133.08-6.35Q133.38-4.1 135.33-2.98 137.28-1.85 139.68-1.85L139.68-1.85Q141.93-1.85 143.78-2.88 145.63-3.9 145.63-6.2L145.63-6.2Q145.63-7.7 144.76-8.68 143.88-9.65 142.58-10.25 141.28-10.85 139.08-11.55L139.08-11.55Q136.63-12.35 135.08-13.05 133.53-13.75 132.38-15.03 131.23-16.3 131.03-18.25L131.03-18.25 130.98-18.85Q130.98-20.5 131.91-22.08 132.83-23.65 134.76-24.65 136.68-25.65 139.58-25.65L139.58-25.65Q141.18-25.65 142.41-25.33 143.63-25 144.33-24.65 145.03-24.3 145.18-24.2L145.18-24.2 144.23-21.9Q144.08-22 143.51-22.3 142.93-22.6 141.88-22.9 140.83-23.2 139.58-23.2L139.58-23.2Q137.18-23.2 135.48-22.08 133.78-20.95 133.78-18.95L133.78-18.95Q133.78-17.05 135.33-16.05 136.88-15.05 140.08-14.05L140.08-14.05Q142.78-13.15 144.43-12.35 146.08-11.55 147.26-10.08 148.43-8.6 148.43-6.25L148.43-6.25Q148.43-3.25 146.21-1.25 143.98 0.75 139.68 0.75L139.68 0.75Q136.83 0.75 134.76-0.23 132.68-1.2 131.61-2.8 130.53-4.4 130.43-6.35L130.43-6.35 133.08-6.35ZM157.68 0.65Q154.88-0.15 153.63-1.9 152.38-3.65 152.38-6.6L152.38-6.6 152.38-35 155.18-35 155.18-25.05 161.18-25.05 159.98-22.4 155.18-22.4 155.18-6.6Q155.18-2.6 158.48-1.5L158.48-1.5 157.68 0.65ZM183.43 0Q178.03 0.55 175.63 0.55L175.63 0.55Q170.38 0.55 167.28-1.4 164.18-3.35 164.18-8.45L164.18-8.45 164.18-12.6Q164.18-17.55 167.63-19.25L167.63-19.25Q169.28-20.1 171.83-20.1L171.83-20.1Q174.18-20.1 176.58-19.33 178.98-18.55 180.63-17.3L180.63-17.3Q180.63-20.05 179.03-21.68 177.43-23.3 172.88-23.3L172.88-23.3 173.03-25.45Q177.83-25.45 180.1-23.93 182.38-22.4 182.9-20.3 183.43-18.2 183.43-14.9L183.43-14.9 183.43 0ZM180.63-15.15Q178.58-16.1 176.25-16.8 173.93-17.5 171.98-17.5L171.98-17.5Q166.93-17.5 166.93-12.45L166.93-12.45 166.93-8.1Q166.93-4.85 169.18-3.38 171.43-1.9 175.58-1.9L175.58-1.9Q177.73-1.9 180.63-2.3L180.63-2.3 180.63-15.15ZM191.42 0.65Q188.62-0.15 187.37-1.9 186.12-3.65 186.12-6.6L186.12-6.6 186.12-35 188.92-35 188.92-25.05 194.92-25.05 193.72-22.4 188.92-22.4 188.92-6.6Q188.92-2.6 192.22-1.5L192.22-1.5 191.42 0.65ZM214.57-1.75Q212.77-0.6 210.47 0 208.17 0.6 205.87 0.6L205.87 0.6Q202.17 0.6 200-1.23 197.82-3.05 197.82-6.7L197.82-6.7 197.82-16.95Q197.82-21 200.35-23.25 202.87-25.5 207.02-25.5L207.02-25.5Q211.17-25.5 213.5-23.28 215.82-21.05 215.82-17.1L215.82-17.1 215.82-10.6 200.62-9.75 200.62-6.7Q200.62-4.3 202.17-3.1 203.72-1.9 206.22-1.9L206.22-1.9Q209.72-1.9 213.47-3.9L213.47-3.9 214.57-1.75ZM213.02-17.45Q213.02-20.55 211.07-21.83 209.12-23.1 206.97-23.1L206.97-23.1Q204.22-23.1 202.42-21.6 200.62-20.1 200.62-16.9L200.62-16.9 200.62-12.5 213.02-13.1 213.02-17.45ZM235.57 10.5L235.57-25.05 238.37-25.05 238.12-22.5Q239.47-23.95 241.29-24.7 243.12-25.45 244.92-25.45L244.92-25.45Q249.57-25.45 251.99-22.75 254.42-20.05 254.42-15.75L254.42-15.75 254.42-8.8Q254.42-4.25 251.87-1.83 249.32 0.6 245.12 0.6L245.12 0.6Q242.97 0.6 241.32 0 239.67-0.6 238.37-2.1L238.37-2.1 238.37 9.4 235.57 10.5ZM251.62-15.95Q251.62-19.6 249.69-21.25 247.77-22.9 245.12-22.9L245.12-22.9Q242.42-22.9 240.47-21.28 238.52-19.65 238.37-16.2L238.37-16.2 238.37-8.3Q238.37-5.05 240.22-3.5 242.07-1.95 245.12-1.95L245.12-1.95Q247.87-1.95 249.74-3.58 251.62-5.2 251.62-8.3L251.62-8.3 251.62-15.95ZM277.16 0Q271.76 0.55 269.36 0.55L269.36 0.55Q264.11 0.55 261.01-1.4 257.91-3.35 257.91-8.45L257.91-8.45 257.91-12.6Q257.91-17.55 261.36-19.25L261.36-19.25Q263.01-20.1 265.56-20.1L265.56-20.1Q267.91-20.1 270.31-19.33 272.71-18.55 274.36-17.3L274.36-17.3Q274.36-20.05 272.76-21.68 271.16-23.3 266.61-23.3L266.61-23.3 266.76-25.45Q271.56-25.45 273.84-23.93 276.11-22.4 276.64-20.3 277.16-18.2 277.16-14.9L277.16-14.9 277.16 0ZM274.36-15.15Q272.31-16.1 269.99-16.8 267.66-17.5 265.71-17.5L265.71-17.5Q260.66-17.5 260.66-12.45L260.66-12.45 260.66-8.1Q260.66-4.85 262.91-3.38 265.16-1.9 269.31-1.9L269.31-1.9Q271.46-1.9 274.36-2.3L274.36-2.3 274.36-15.15ZM282.01 0L282.01-25.05 284.81-25.05 284.66-23.3Q287.01-25.5 290.81-25.5L290.81-25.5Q292.16-25.5 294.51-25.05L294.51-25.05 293.76-22.5Q292.16-23 290.41-23L290.41-23Q288.11-23 286.46-22.15 284.81-21.3 284.81-19.6L284.81-19.6 284.81 0 282.01 0ZM302.51 0.65Q299.71-0.15 298.46-1.9 297.21-3.65 297.21-6.6L297.21-6.6 297.21-35 300.01-35 300.01-25.05 306.01-25.05 304.81-22.4 300.01-22.4 300.01-6.6Q300.01-2.6 303.31-1.5L303.31-1.5 302.51 0.65ZM326.06 0L326.06-17.15Q326.06-20.2 324.28-21.58 322.51-22.95 319.71-22.95L319.71-22.95Q318.01-22.95 316.26-22.48 314.51-22 313.16-21.25L313.16-21.25 313.16 0 310.36 0 310.36-25.05 313.16-25.05 312.96-23.35Q314.16-24.4 316.01-24.93 317.86-25.45 319.86-25.45L319.86-25.45Q322.61-25.45 324.56-24.55L324.56-24.55Q326.56-23.65 327.68-21.85 328.81-20.05 328.81-17.3L328.81-17.3 328.81 0 326.06 0ZM350.65-1.75Q348.85-0.6 346.55 0 344.25 0.6 341.95 0.6L341.95 0.6Q338.25 0.6 336.08-1.23 333.9-3.05 333.9-6.7L333.9-6.7 333.9-16.95Q333.9-21 336.43-23.25 338.95-25.5 343.1-25.5L343.1-25.5Q347.25-25.5 349.58-23.28 351.9-21.05 351.9-17.1L351.9-17.1 351.9-10.6 336.7-9.75 336.7-6.7Q336.7-4.3 338.25-3.1 339.8-1.9 342.3-1.9L342.3-1.9Q345.8-1.9 349.55-3.9L349.55-3.9 350.65-1.75ZM349.1-17.45Q349.1-20.55 347.15-21.83 345.2-23.1 343.05-23.1L343.05-23.1Q340.3-23.1 338.5-21.6 336.7-20.1 336.7-16.9L336.7-16.9 336.7-12.5 349.1-13.1 349.1-17.45ZM356.9 0L356.9-25.05 359.7-25.05 359.55-23.3Q361.9-25.5 365.7-25.5L365.7-25.5Q367.05-25.5 369.4-25.05L369.4-25.05 368.65-22.5Q367.05-23 365.3-23L365.3-23Q363-23 361.35-22.15 359.7-21.3 359.7-19.6L359.7-19.6 359.7 0 356.9 0Z" opacity="1" transform="matrix(1,0,0,1,0,0)" fill="#21272d" class="wordmark-text-0" data-fill-palette-color="primary" id="text-0"></path></svg></g></svg></g><g transform="matrix(1,0,0,1,0,27.62227283842794)"><svg viewBox="0 0 192 14.30374398226717" height="14.30374398226717" width="192"><g transform="matrix(1,0,0,1,0,0)"><svg width="192" viewBox="3.98 -39.5 704.84 52.510000000000005" height="14.30374398226717" data-palette-color="#21272d"><path d="M13.67-35.16L13.67 0 3.98 0 3.98-35.16 13.67-35.16ZM49.66-16.16L49.66-16.16Q49.66-13.31 48.96-10.21 48.26-7.1 47.02-4.13 45.77-1.15 44.04 1.48 42.31 4.1 40.23 6.01L40.23 6.01 37.13 4.32Q37.79 3.1 38.38 1.59 38.96 0.07 39.44-1.62 39.91-3.32 40.29-5.13 40.67-6.93 40.93-8.7 41.18-10.47 41.32-12.15 41.45-13.82 41.45-15.26L41.45-15.26Q41.45-16.21 41.38-17.3 41.31-18.38 41.07-19.47 40.84-20.56 40.45-21.56 40.06-22.56 39.41-23.32 38.77-24.07 37.85-24.54 36.94-25 35.69-25L35.69-25Q34.47-25 33.52-24.45 32.57-23.9 31.83-23.01 31.1-22.12 30.58-20.97 30.05-19.82 29.72-18.62 29.39-17.41 29.25-16.24 29.1-15.06 29.1-14.14L29.1-14.14 29.1 0 20.82 0 20.82-28.2 24-28.2 27.78-21.63Q28.46-23.27 29.49-24.61 30.52-25.95 31.81-26.9 33.1-27.86 34.68-28.37 36.25-28.88 38.08-28.88L38.08-28.88Q41.01-28.88 43.19-27.93 45.36-26.98 46.8-25.28 48.24-23.58 48.95-21.25 49.66-18.92 49.66-16.16ZM79.37-9.01L79.37-9.01Q79.37-7.15 78.83-5.71 78.29-4.27 77.36-3.21 76.44-2.15 75.17-1.43 73.9-0.71 72.44-0.27 70.99 0.17 69.4 0.37 67.82 0.56 66.25 0.56L66.25 0.56Q64.16 0.56 62.54 0.29 60.93 0.02 59.47-0.57 58-1.17 56.55-2.12 55.1-3.08 53.32-4.44L53.32-4.44 58.12-8.37Q58.78-7.13 59.87-6.12 60.96-5.1 62.13-4.37 63.3-3.64 64.4-3.25 65.5-2.86 66.18-2.86L66.18-2.86Q66.74-2.86 67.45-2.89 68.16-2.93 68.89-3.04 69.62-3.15 70.33-3.37 71.04-3.59 71.59-3.97 72.14-4.35 72.47-4.92 72.8-5.49 72.8-6.3L72.8-6.3Q72.8-7.13 72.37-7.75 71.94-8.37 71.26-8.84 70.58-9.3 69.7-9.62 68.82-9.94 67.93-10.18 67.04-10.42 66.21-10.61 65.38-10.79 64.77-10.96L64.77-10.96Q63.64-11.28 62.4-11.61 61.15-11.94 59.93-12.37 58.71-12.79 57.6-13.38 56.49-13.96 55.65-14.78 54.8-15.6 54.3-16.71 53.8-17.82 53.8-19.31L53.8-19.31Q53.8-22.05 54.89-23.89 55.98-25.73 57.76-26.84 59.54-27.95 61.81-28.42 64.08-28.88 66.43-28.88L66.43-28.88Q68.04-28.88 69.82-28.55 71.6-28.22 73.29-27.58 74.97-26.93 76.44-26 77.9-25.07 78.88-23.88L78.88-23.88 74.07-19.92Q73.53-21.39 72.66-22.44 71.8-23.49 70.78-24.16 69.77-24.83 68.71-25.15 67.65-25.46 66.74-25.46L66.74-25.46Q65.86-25.46 64.77-25.39 63.67-25.32 62.7-24.98 61.74-24.63 61.07-23.94 60.4-23.24 60.4-22.02L60.4-22.02Q60.4-21.14 60.8-20.52 61.2-19.9 61.86-19.45 62.52-18.99 63.36-18.69 64.2-18.38 65.08-18.15 65.96-17.92 66.79-17.75 67.62-17.58 68.28-17.38L68.28-17.38Q69.4-17.07 70.66-16.74 71.92-16.41 73.14-15.98 74.36-15.55 75.5-14.98 76.63-14.4 77.49-13.57 78.34-12.74 78.85-11.63 79.37-10.52 79.37-9.01ZM114.54-14.16L114.54-14.16Q114.54-11.08 113.62-8.4 112.69-5.71 110.93-3.72 109.17-1.73 106.63-0.59 104.09 0.56 100.87 0.56L100.87 0.56Q98.41 0.56 96.34-0.4 94.28-1.37 92.81-3.37L92.81-3.37 92.81 13.01 84.56 13.01 84.56-28.2 87.74-28.2 91.4-22.07Q91.94-23.61 92.88-24.87 93.82-26.12 95.05-27.01 96.28-27.91 97.76-28.39 99.24-28.88 100.87-28.88L100.87-28.88Q104.09-28.88 106.63-27.73 109.17-26.59 110.93-24.6 112.69-22.61 113.62-19.92 114.54-17.24 114.54-14.16ZM106.17-14.16L106.17-14.16Q106.17-15.23 106.06-16.44 105.95-17.65 105.68-18.85 105.41-20.04 104.94-21.14 104.46-22.24 103.73-23.08 103-23.93 101.96-24.43 100.92-24.93 99.55-24.93L99.55-24.93Q98.14-24.93 97.1-24.44 96.06-23.95 95.32-23.11 94.57-22.27 94.1-21.18 93.62-20.09 93.35-18.9 93.08-17.7 92.97-16.48 92.86-15.26 92.86-14.16L92.86-14.16Q92.86-13.18 93.01-12 93.16-10.82 93.47-9.62 93.79-8.42 94.3-7.3 94.82-6.18 95.56-5.3 96.31-4.42 97.29-3.89 98.28-3.37 99.55-3.37L99.55-3.37Q100.94-3.37 101.97-3.87 103-4.37 103.73-5.21 104.46-6.05 104.94-7.15 105.41-8.25 105.68-9.45 105.95-10.64 106.06-11.87 106.17-13.09 106.17-14.16ZM126.63-13.38L126.63-13.38Q128.14-13.04 129.65-12.84 131.17-12.65 132.7-12.65L132.7-12.65Q134.32-12.65 135.7-12.95 137.07-13.26 138.09-13.98 139.1-14.7 139.69-15.89 140.27-17.09 140.27-18.87L140.27-18.87Q140.27-20.31 139.88-21.51 139.49-22.71 138.72-23.56 137.95-24.41 136.83-24.89 135.71-25.37 134.22-25.37L134.22-25.37Q132.83-25.37 131.72-24.85 130.61-24.34 129.76-23.47 128.92-22.61 128.32-21.46 127.72-20.31 127.33-19.07 126.94-17.82 126.77-16.55 126.6-15.28 126.6-14.16L126.6-14.16Q126.6-13.96 126.6-13.77 126.6-13.57 126.63-13.38ZM146.96-18.95L146.96-18.95Q146.96-17.21 146.4-15.86 145.84-14.5 144.88-13.48 143.91-12.45 142.64-11.74 141.37-11.04 139.93-10.58 138.49-10.13 136.97-9.94 135.44-9.74 134-9.74L134-9.74Q132.17-9.74 130.39-10 128.6-10.25 126.87-10.82L126.87-10.82Q127.14-9.2 127.72-7.75 128.31-6.3 129.29-5.21 130.26-4.13 131.69-3.49 133.12-2.86 135.07-2.86L135.07-2.86Q136.37-2.86 137.54-3.25 138.71-3.64 139.69-4.35 140.66-5.05 141.41-6.03 142.15-7.01 142.62-8.2L142.62-8.2 146.18-6.88Q145.38-4.96 143.97-3.55 142.57-2.15 140.8-1.23 139.03-0.32 137.04 0.12 135.05 0.56 133.1 0.56L133.1 0.56Q129.87 0.56 127.14-0.52 124.4-1.61 122.43-3.56 120.45-5.52 119.33-8.23 118.2-10.94 118.2-14.16L118.2-14.16Q118.2-17.38 119.33-20.09 120.45-22.8 122.43-24.76 124.4-26.71 127.14-27.8 129.87-28.88 133.1-28.88L133.1-28.88Q134.66-28.88 136.29-28.66 137.93-28.44 139.47-27.97 141.01-27.49 142.37-26.73 143.74-25.98 144.75-24.87 145.77-23.75 146.36-22.29 146.96-20.83 146.96-18.95ZM178.14-21.22L178.14-21.22 174.57-19.8Q173.72-22.49 171.72-23.93 169.71-25.37 166.91-25.37L166.91-25.37Q165.39-25.37 164.21-24.89 163.02-24.41 162.13-23.58 161.24-22.75 160.62-21.66 160-20.56 159.61-19.31 159.22-18.07 159.05-16.74 158.87-15.41 158.87-14.16L158.87-14.16Q158.87-12.82 159.02-11.45 159.17-10.08 159.52-8.83 159.88-7.57 160.46-6.48 161.05-5.4 161.94-4.59 162.83-3.78 164.06-3.32 165.3-2.86 166.91-2.86L166.91-2.86Q168.2-2.86 169.37-3.25 170.54-3.64 171.52-4.35 172.5-5.05 173.25-6.03 174.01-7.01 174.45-8.2L174.45-8.2 178.04-6.88Q177.23-4.96 175.9-3.55 174.57-2.15 172.89-1.23 171.2-0.32 169.27 0.12 167.35 0.56 165.37 0.56L165.37 0.56Q162.17 0.56 159.44-0.52 156.7-1.61 154.71-3.58 152.72-5.54 151.6-8.24 150.48-10.94 150.48-14.16L150.48-14.16Q150.48-17.41 151.59-20.12 152.7-22.83 154.68-24.78 156.65-26.73 159.39-27.81 162.12-28.88 165.37-28.88L165.37-28.88Q167.42-28.88 169.37-28.43 171.33-27.98 173-27.04 174.67-26.1 176-24.66 177.33-23.22 178.14-21.22ZM193.64-24.93L193.64 0 185.36 0 185.36-24.93 180.23-24.93 180.23-28.2 185.36-28.2 185.36-38.57 193.64-38.57 193.64-28.2 202.18-28.2 202.18-24.93 193.64-24.93ZM214.68-35.01L214.68-35.01Q214.68-34.08 214.33-33.25 213.97-32.42 213.36-31.81 212.75-31.2 211.92-30.85 211.09-30.49 210.16-30.49L210.16-30.49Q209.24-30.49 208.42-30.85 207.6-31.2 206.99-31.81 206.38-32.42 206.02-33.25 205.67-34.08 205.67-35.01L205.67-35.01Q205.67-35.94 206.02-36.76 206.38-37.57 206.99-38.18 207.6-38.79 208.42-39.15 209.24-39.5 210.16-39.5L210.16-39.5Q211.09-39.5 211.92-39.15 212.75-38.79 213.36-38.18 213.97-37.57 214.33-36.76 214.68-35.94 214.68-35.01ZM214.31-28.17L214.31 0 206.04 0 206.04-28.17 214.31-28.17ZM251.01-14.16L251.01-14.16Q251.01-11.96 250.42-10.03 249.83-8.11 248.8-6.47 247.76-4.83 246.29-3.53 244.83-2.22 243.08-1.32 241.34-0.42 239.35 0.07 237.36 0.56 235.26 0.56L235.26 0.56Q233.16 0.56 231.18 0.07 229.2-0.42 227.46-1.32 225.71-2.22 224.25-3.53 222.78-4.83 221.75-6.47 220.71-8.11 220.12-10.05 219.54-11.99 219.54-14.16L219.54-14.16Q219.54-16.33 220.12-18.27 220.71-20.21 221.75-21.85 222.78-23.49 224.25-24.79 225.71-26.1 227.46-27 229.2-27.91 231.18-28.39 233.16-28.88 235.26-28.88L235.26-28.88Q237.36-28.88 239.35-28.39 241.34-27.91 243.08-27 244.83-26.1 246.29-24.79 247.76-23.49 248.8-21.85 249.83-20.21 250.42-18.27 251.01-16.33 251.01-14.16ZM242.61-14.16L242.61-14.16Q242.61-15.33 242.47-16.64 242.34-17.94 242.02-19.2 241.7-20.46 241.15-21.62 240.61-22.78 239.8-23.65 238.99-24.51 237.87-25.04 236.75-25.56 235.26-25.56L235.26-25.56Q233.84-25.56 232.74-25.02 231.65-24.49 230.83-23.6 230.01-22.71 229.46-21.53 228.91-20.36 228.57-19.1 228.23-17.85 228.08-16.56 227.93-15.28 227.93-14.16L227.93-14.16Q227.93-13.04 228.08-11.76 228.23-10.47 228.57-9.2 228.91-7.93 229.46-6.77 230.01-5.62 230.83-4.72 231.65-3.83 232.74-3.3 233.84-2.76 235.26-2.76L235.26-2.76Q236.72-2.76 237.85-3.28 238.97-3.81 239.79-4.69 240.61-5.57 241.14-6.71 241.68-7.86 242.01-9.13 242.34-10.4 242.47-11.69 242.61-12.99 242.61-14.16ZM285.04-16.16L285.04-16.16Q285.04-13.31 284.34-10.21 283.64-7.1 282.4-4.13 281.15-1.15 279.42 1.48 277.69 4.1 275.61 6.01L275.61 6.01 272.51 4.32Q273.17 3.1 273.76 1.59 274.34 0.07 274.82-1.62 275.29-3.32 275.67-5.13 276.05-6.93 276.31-8.7 276.56-10.47 276.7-12.15 276.83-13.82 276.83-15.26L276.83-15.26Q276.83-16.21 276.76-17.3 276.69-18.38 276.45-19.47 276.22-20.56 275.83-21.56 275.44-22.56 274.79-23.32 274.15-24.07 273.23-24.54 272.32-25 271.07-25L271.07-25Q269.85-25 268.9-24.45 267.95-23.9 267.21-23.01 266.48-22.12 265.96-20.97 265.43-19.82 265.1-18.62 264.77-17.41 264.63-16.24 264.48-15.06 264.48-14.14L264.48-14.14 264.48 0 256.2 0 256.2-28.2 259.38-28.2 263.16-21.63Q263.84-23.27 264.87-24.61 265.9-25.95 267.19-26.9 268.48-27.86 270.06-28.37 271.63-28.88 273.46-28.88L273.46-28.88Q276.39-28.88 278.57-27.93 280.74-26.98 282.18-25.28 283.62-23.58 284.33-21.25 285.04-18.92 285.04-16.16ZM313.3-35.01L313.3-35.01Q313.3-34.08 312.95-33.25 312.59-32.42 311.98-31.81 311.37-31.2 310.54-30.85 309.71-30.49 308.79-30.49L308.79-30.49Q307.86-30.49 307.04-30.85 306.22-31.2 305.61-31.81 305-32.42 304.65-33.25 304.29-34.08 304.29-35.01L304.29-35.01Q304.29-35.94 304.65-36.76 305-37.57 305.61-38.18 306.22-38.79 307.04-39.15 307.86-39.5 308.79-39.5L308.79-39.5Q309.71-39.5 310.54-39.15 311.37-38.79 311.98-38.18 312.59-37.57 312.95-36.76 313.3-35.94 313.3-35.01ZM312.94-28.17L312.94 0 304.66 0 304.66-28.17 312.94-28.17ZM344.11-9.01L344.11-9.01Q344.11-7.15 343.57-5.71 343.04-4.27 342.11-3.21 341.18-2.15 339.91-1.43 338.64-0.71 337.19-0.27 335.74 0.17 334.15 0.37 332.56 0.56 331 0.56L331 0.56Q328.9 0.56 327.29 0.29 325.68 0.02 324.21-0.57 322.75-1.17 321.3-2.12 319.84-3.08 318.06-4.44L318.06-4.44 322.87-8.37Q323.53-7.13 324.62-6.12 325.7-5.1 326.87-4.37 328.05-3.64 329.14-3.25 330.24-2.86 330.93-2.86L330.93-2.86Q331.49-2.86 332.2-2.89 332.9-2.93 333.64-3.04 334.37-3.15 335.08-3.37 335.79-3.59 336.33-3.97 336.88-4.35 337.21-4.92 337.54-5.49 337.54-6.3L337.54-6.3Q337.54-7.13 337.12-7.75 336.69-8.37 336.01-8.84 335.32-9.3 334.44-9.62 333.56-9.94 332.67-10.18 331.78-10.42 330.95-10.61 330.12-10.79 329.51-10.96L329.51-10.96Q328.39-11.28 327.14-11.61 325.9-11.94 324.68-12.37 323.46-12.79 322.35-13.38 321.23-13.96 320.39-14.78 319.55-15.6 319.05-16.71 318.55-17.82 318.55-19.31L318.55-19.31Q318.55-22.05 319.64-23.89 320.72-25.73 322.5-26.84 324.29-27.95 326.56-28.42 328.83-28.88 331.17-28.88L331.17-28.88Q332.78-28.88 334.56-28.55 336.35-28.22 338.03-27.58 339.72-26.93 341.18-26 342.65-25.07 343.62-23.88L343.62-23.88 338.81-19.92Q338.28-21.39 337.41-22.44 336.54-23.49 335.53-24.16 334.52-24.83 333.45-25.15 332.39-25.46 331.49-25.46L331.49-25.46Q330.61-25.46 329.51-25.39 328.41-25.32 327.45-24.98 326.48-24.63 325.81-23.94 325.14-23.24 325.14-22.02L325.14-22.02Q325.14-21.14 325.54-20.52 325.95-19.9 326.61-19.45 327.26-18.99 328.11-18.69 328.95-18.38 329.83-18.15 330.71-17.92 331.54-17.75 332.37-17.58 333.03-17.38L333.03-17.38Q334.15-17.07 335.41-16.74 336.66-16.41 337.89-15.98 339.11-15.55 340.24-14.98 341.38-14.4 342.23-13.57 343.09-12.74 343.6-11.63 344.11-10.52 344.11-9.01ZM393.25-14.16L393.25-14.16Q393.25-11.96 392.67-10.03 392.08-8.11 391.04-6.47 390-4.83 388.54-3.53 387.07-2.22 385.33-1.32 383.58-0.42 381.59 0.07 379.6 0.56 377.5 0.56L377.5 0.56Q375.4 0.56 373.43 0.07 371.45-0.42 369.7-1.32 367.96-2.22 366.49-3.53 365.03-4.83 363.99-6.47 362.95-8.11 362.37-10.05 361.78-11.99 361.78-14.16L361.78-14.16Q361.78-16.33 362.37-18.27 362.95-20.21 363.99-21.85 365.03-23.49 366.49-24.79 367.96-26.1 369.7-27 371.45-27.91 373.43-28.39 375.4-28.88 377.5-28.88L377.5-28.88Q379.6-28.88 381.59-28.39 383.58-27.91 385.33-27 387.07-26.1 388.54-24.79 390-23.49 391.04-21.85 392.08-20.21 392.67-18.27 393.25-16.33 393.25-14.16ZM384.85-14.16L384.85-14.16Q384.85-15.33 384.72-16.64 384.58-17.94 384.27-19.2 383.95-20.46 383.4-21.62 382.85-22.78 382.05-23.65 381.24-24.51 380.12-25.04 378.99-25.56 377.5-25.56L377.5-25.56Q376.09-25.56 374.99-25.02 373.89-24.49 373.07-23.6 372.26-22.71 371.71-21.53 371.16-20.36 370.81-19.1 370.47-17.85 370.33-16.56 370.18-15.28 370.18-14.16L370.18-14.16Q370.18-13.04 370.33-11.76 370.47-10.47 370.81-9.2 371.16-7.93 371.71-6.77 372.26-5.62 373.07-4.72 373.89-3.83 374.99-3.3 376.09-2.76 377.5-2.76L377.5-2.76Q378.97-2.76 380.09-3.28 381.22-3.81 382.03-4.69 382.85-5.57 383.39-6.71 383.92-7.86 384.25-9.13 384.58-10.4 384.72-11.69 384.85-12.99 384.85-14.16ZM397.01-12.06L397.01-12.06Q397.01-13.99 397.34-16.06 397.67-18.14 398.29-20.21 398.91-22.29 399.79-24.32 400.67-26.34 401.77-28.2L401.77-28.2 407.8-28.2Q407.19-26.37 406.71-24.38 406.24-22.39 405.91-20.4 405.58-18.41 405.39-16.5 405.21-14.6 405.21-12.96L405.21-12.96Q405.21-12.01 405.3-10.93 405.38-9.84 405.6-8.75 405.82-7.67 406.22-6.67 406.63-5.66 407.26-4.9 407.9-4.13 408.81-3.67 409.73-3.22 410.97-3.22L410.97-3.22Q412.19-3.22 413.16-3.77 414.12-4.32 414.86-5.21 415.59-6.1 416.1-7.25 416.61-8.4 416.94-9.61 417.27-10.82 417.43-11.98 417.59-13.13 417.59-14.06L417.59-14.06 417.59-28.2 425.84-28.2 425.84 0 422.67 0 418.88-6.57Q418.18-4.93 417.16-3.6 416.15-2.27 414.86-1.32 413.56-0.37 411.99 0.15 410.41 0.66 408.58 0.66L408.58 0.66Q405.65 0.66 403.48-0.29 401.31-1.25 399.86-2.93 398.42-4.61 397.72-6.95 397.01-9.28 397.01-12.06ZM456.7-25.71L456.7-25.71 452.06-18.02Q451.77-18.99 451.3-20.21 450.84-21.44 450.16-22.5 449.47-23.56 448.52-24.28 447.57-25 446.32-25L446.32-25Q445.17-25 444.33-24.41 443.49-23.83 442.9-22.89 442.32-21.95 441.94-20.76 441.56-19.58 441.35-18.37 441.15-17.16 441.07-16.05 441-14.94 441-14.14L441-14.14 441 0 432.72 0 432.72-28.2 435.9-28.2 439.24-21.63Q439.93-23.22 440.8-24.55 441.68-25.88 442.83-26.84 443.98-27.81 445.43-28.34 446.88-28.88 448.71-28.88L448.71-28.88Q449.67-28.88 450.84-28.72 452.01-28.56 453.13-28.19 454.26-27.81 455.21-27.2 456.16-26.59 456.7-25.71ZM504.28-14.06L504.28-14.06Q504.28-10.99 503.35-8.3 502.42-5.62 500.66-3.63 498.91-1.64 496.37-0.49 493.83 0.66 490.6 0.66L490.6 0.66Q488.97 0.66 487.49 0.17 486.01-0.32 484.78-1.21 483.55-2.1 482.61-3.34 481.67-4.59 481.13-6.13L481.13-6.13 477.47 0 474.3 0 474.3-38.57 482.55-38.57 482.55-24.83Q484.01-26.86 486.08-27.81 488.14-28.76 490.6-28.76L490.6-28.76Q493.83-28.76 496.37-27.61 498.91-26.46 500.66-24.49 502.42-22.51 503.35-19.82 504.28-17.14 504.28-14.06ZM495.9-14.06L495.9-14.06Q495.9-15.14 495.79-16.35 495.68-17.55 495.41-18.75 495.15-19.95 494.67-21.04 494.19-22.14 493.46-22.99 492.73-23.83 491.7-24.33 490.68-24.83 489.29-24.83L489.29-24.83Q488.02-24.83 487.03-24.3 486.04-23.78 485.29-22.9 484.55-22.02 484.04-20.9 483.52-19.78 483.21-18.58 482.89-17.38 482.74-16.21 482.6-15.04 482.6-14.06L482.6-14.06Q482.6-12.96 482.71-11.74 482.82-10.52 483.08-9.31 483.35-8.11 483.83-7.02 484.31-5.93 485.05-5.09 485.79-4.25 486.83-3.76 487.87-3.27 489.29-3.27L489.29-3.27Q490.65-3.27 491.69-3.77 492.73-4.27 493.46-5.11 494.19-5.96 494.67-7.07 495.15-8.18 495.41-9.38 495.68-10.57 495.79-11.78 495.9-12.99 495.9-14.06ZM508.16-12.06L508.16-12.06Q508.16-13.99 508.49-16.06 508.81-18.14 509.44-20.21 510.06-22.29 510.94-24.32 511.82-26.34 512.92-28.2L512.92-28.2 518.95-28.2Q518.34-26.37 517.86-24.38 517.38-22.39 517.05-20.4 516.72-18.41 516.54-16.5 516.36-14.6 516.36-12.96L516.36-12.96Q516.36-12.01 516.44-10.93 516.53-9.84 516.75-8.75 516.97-7.67 517.37-6.67 517.77-5.66 518.41-4.9 519.04-4.13 519.96-3.67 520.88-3.22 522.12-3.22L522.12-3.22Q523.34-3.22 524.31-3.77 525.27-4.32 526-5.21 526.73-6.1 527.25-7.25 527.76-8.4 528.09-9.61 528.42-10.82 528.58-11.98 528.74-13.13 528.74-14.06L528.74-14.06 528.74-28.2 536.99-28.2 536.99 0 533.81 0 530.03-6.57Q529.32-4.93 528.31-3.6 527.3-2.27 526-1.32 524.71-0.37 523.13 0.15 521.56 0.66 519.73 0.66L519.73 0.66Q516.8 0.66 514.63-0.29 512.45-1.25 511.01-2.93 509.57-4.61 508.86-6.95 508.16-9.28 508.16-12.06ZM568.14-9.01L568.14-9.01Q568.14-7.15 567.6-5.71 567.06-4.27 566.14-3.21 565.21-2.15 563.94-1.43 562.67-0.71 561.22-0.27 559.76 0.17 558.18 0.37 556.59 0.56 555.03 0.56L555.03 0.56Q552.93 0.56 551.32 0.29 549.71 0.02 548.24-0.57 546.78-1.17 545.32-2.12 543.87-3.08 542.09-4.44L542.09-4.44 546.9-8.37Q547.56-7.13 548.64-6.12 549.73-5.1 550.9-4.37 552.07-3.64 553.17-3.25 554.27-2.86 554.95-2.86L554.95-2.86Q555.52-2.86 556.22-2.89 556.93-2.93 557.66-3.04 558.4-3.15 559.11-3.37 559.81-3.59 560.36-3.97 560.91-4.35 561.24-4.92 561.57-5.49 561.57-6.3L561.57-6.3Q561.57-7.13 561.14-7.75 560.72-8.37 560.03-8.84 559.35-9.3 558.47-9.62 557.59-9.94 556.7-10.18 555.81-10.42 554.98-10.61 554.15-10.79 553.54-10.96L553.54-10.96Q552.42-11.28 551.17-11.61 549.93-11.94 548.7-12.37 547.48-12.79 546.37-13.38 545.26-13.96 544.42-14.78 543.58-15.6 543.08-16.71 542.58-17.82 542.58-19.31L542.58-19.31Q542.58-22.05 543.66-23.89 544.75-25.73 546.53-26.84 548.31-27.95 550.58-28.42 552.86-28.88 555.2-28.88L555.2-28.88Q556.81-28.88 558.59-28.55 560.37-28.22 562.06-27.58 563.74-26.93 565.21-26 566.67-25.07 567.65-23.88L567.65-23.88 562.84-19.92Q562.3-21.39 561.44-22.44 560.57-23.49 559.56-24.16 558.54-24.83 557.48-25.15 556.42-25.46 555.52-25.46L555.52-25.46Q554.64-25.46 553.54-25.39 552.44-25.32 551.48-24.98 550.51-24.63 549.84-23.94 549.17-23.24 549.17-22.02L549.17-22.02Q549.17-21.14 549.57-20.52 549.97-19.9 550.63-19.45 551.29-18.99 552.14-18.69 552.98-18.38 553.86-18.15 554.74-17.92 555.57-17.75 556.4-17.58 557.05-17.38L557.05-17.38Q558.18-17.07 559.43-16.74 560.69-16.41 561.91-15.98 563.13-15.55 564.27-14.98 565.4-14.4 566.26-13.57 567.11-12.74 567.63-11.63 568.14-10.52 568.14-9.01ZM582-35.01L582-35.01Q582-34.08 581.65-33.25 581.3-32.42 580.68-31.81 580.07-31.2 579.24-30.85 578.41-30.49 577.49-30.49L577.49-30.49Q576.56-30.49 575.74-30.85 574.92-31.2 574.31-31.81 573.7-32.42 573.35-33.25 572.99-34.08 572.99-35.01L572.99-35.01Q572.99-35.94 573.35-36.76 573.7-37.57 574.31-38.18 574.92-38.79 575.74-39.15 576.56-39.5 577.49-39.5L577.49-39.5Q578.41-39.5 579.24-39.15 580.07-38.79 580.68-38.18 581.3-37.57 581.65-36.76 582-35.94 582-35.01ZM581.64-28.17L581.64 0 573.36 0 573.36-28.17 581.64-28.17ZM617.38-16.16L617.38-16.16Q617.38-13.31 616.68-10.21 615.99-7.1 614.74-4.13 613.49-1.15 611.76 1.48 610.03 4.1 607.95 6.01L607.95 6.01 604.85 4.32Q605.51 3.1 606.1 1.59 606.68 0.07 607.16-1.62 607.64-3.32 608.01-5.13 608.39-6.93 608.65-8.7 608.9-10.47 609.04-12.15 609.17-13.82 609.17-15.26L609.17-15.26Q609.17-16.21 609.1-17.3 609.03-18.38 608.8-19.47 608.56-20.56 608.17-21.56 607.78-22.56 607.13-23.32 606.49-24.07 605.57-24.54 604.66-25 603.41-25L603.41-25Q602.19-25 601.24-24.45 600.29-23.9 599.55-23.01 598.82-22.12 598.3-20.97 597.77-19.82 597.44-18.62 597.11-17.41 596.97-16.24 596.82-15.06 596.82-14.14L596.82-14.14 596.82 0 588.54 0 588.54-28.2 591.72-28.2 595.5-21.63Q596.19-23.27 597.21-24.61 598.24-25.95 599.53-26.9 600.82-27.86 602.4-28.37 603.97-28.88 605.8-28.88L605.8-28.88Q608.73-28.88 610.91-27.93 613.08-26.98 614.52-25.28 615.96-23.58 616.67-21.25 617.38-18.92 617.38-16.16ZM629.61-13.38L629.61-13.38Q631.12-13.04 632.63-12.84 634.15-12.65 635.68-12.65L635.68-12.65Q637.3-12.65 638.68-12.95 640.05-13.26 641.07-13.98 642.08-14.7 642.67-15.89 643.25-17.09 643.25-18.87L643.25-18.87Q643.25-20.31 642.86-21.51 642.47-22.71 641.7-23.56 640.93-24.41 639.81-24.89 638.69-25.37 637.2-25.37L637.2-25.37Q635.81-25.37 634.7-24.85 633.59-24.34 632.74-23.47 631.9-22.61 631.3-21.46 630.7-20.31 630.31-19.07 629.92-17.82 629.75-16.55 629.58-15.28 629.58-14.16L629.58-14.16Q629.58-13.96 629.58-13.77 629.58-13.57 629.61-13.38ZM649.94-18.95L649.94-18.95Q649.94-17.21 649.38-15.86 648.82-14.5 647.86-13.48 646.89-12.45 645.62-11.74 644.35-11.04 642.91-10.58 641.47-10.13 639.94-9.94 638.42-9.74 636.98-9.74L636.98-9.74Q635.15-9.74 633.37-10 631.58-10.25 629.85-10.82L629.85-10.82Q630.12-9.2 630.7-7.75 631.29-6.3 632.27-5.21 633.24-4.13 634.67-3.49 636.1-2.86 638.05-2.86L638.05-2.86Q639.35-2.86 640.52-3.25 641.69-3.64 642.67-4.35 643.64-5.05 644.39-6.03 645.13-7.01 645.6-8.2L645.6-8.2 649.16-6.88Q648.36-4.96 646.95-3.55 645.55-2.15 643.78-1.23 642.01-0.32 640.02 0.12 638.03 0.56 636.08 0.56L636.08 0.56Q632.85 0.56 630.12-0.52 627.38-1.61 625.41-3.56 623.43-5.52 622.31-8.23 621.18-10.94 621.18-14.16L621.18-14.16Q621.18-17.38 622.31-20.09 623.43-22.8 625.41-24.76 627.38-26.71 630.12-27.8 632.85-28.88 636.08-28.88L636.08-28.88Q637.64-28.88 639.27-28.66 640.91-28.44 642.45-27.97 643.99-27.49 645.35-26.73 646.72-25.98 647.73-24.87 648.75-23.75 649.34-22.29 649.94-20.83 649.94-18.95ZM679.36-9.01L679.36-9.01Q679.36-7.15 678.82-5.71 678.28-4.27 677.36-3.21 676.43-2.15 675.16-1.43 673.89-0.71 672.44-0.27 670.98 0.17 669.4 0.37 667.81 0.56 666.25 0.56L666.25 0.56Q664.15 0.56 662.54 0.29 660.93 0.02 659.46-0.57 658-1.17 656.54-2.12 655.09-3.08 653.31-4.44L653.31-4.44 658.12-8.37Q658.78-7.13 659.86-6.12 660.95-5.1 662.12-4.37 663.29-3.64 664.39-3.25 665.49-2.86 666.18-2.86L666.18-2.86Q666.74-2.86 667.44-2.89 668.15-2.93 668.89-3.04 669.62-3.15 670.33-3.37 671.03-3.59 671.58-3.97 672.13-4.35 672.46-4.92 672.79-5.49 672.79-6.3L672.79-6.3Q672.79-7.13 672.36-7.75 671.94-8.37 671.25-8.84 670.57-9.3 669.69-9.62 668.81-9.94 667.92-10.18 667.03-10.42 666.2-10.61 665.37-10.79 664.76-10.96L664.76-10.96Q663.64-11.28 662.39-11.61 661.15-11.94 659.93-12.37 658.7-12.79 657.59-13.38 656.48-13.96 655.64-14.78 654.8-15.6 654.3-16.71 653.8-17.82 653.8-19.31L653.8-19.31Q653.8-22.05 654.88-23.89 655.97-25.73 657.75-26.84 659.53-27.95 661.81-28.42 664.08-28.88 666.42-28.88L666.42-28.88Q668.03-28.88 669.81-28.55 671.6-28.22 673.28-27.58 674.96-26.93 676.43-26 677.89-25.07 678.87-23.88L678.87-23.88 674.06-19.92Q673.52-21.39 672.66-22.44 671.79-23.49 670.78-24.16 669.76-24.83 668.7-25.15 667.64-25.46 666.74-25.46L666.74-25.46Q665.86-25.46 664.76-25.39 663.66-25.32 662.7-24.98 661.73-24.63 661.06-23.94 660.39-23.24 660.39-22.02L660.39-22.02Q660.39-21.14 660.79-20.52 661.19-19.9 661.85-19.45 662.51-18.99 663.36-18.69 664.2-18.38 665.08-18.15 665.96-17.92 666.79-17.75 667.62-17.58 668.27-17.38L668.27-17.38Q669.4-17.07 670.66-16.74 671.91-16.41 673.13-15.98 674.35-15.55 675.49-14.98 676.62-14.4 677.48-13.57 678.33-12.74 678.85-11.63 679.36-10.52 679.36-9.01ZM708.82-9.01L708.82-9.01Q708.82-7.15 708.29-5.71 707.75-4.27 706.82-3.21 705.89-2.15 704.62-1.43 703.36-0.71 701.9-0.27 700.45 0.17 698.86 0.37 697.28 0.56 695.71 0.56L695.71 0.56Q693.61 0.56 692 0.29 690.39 0.02 688.93-0.57 687.46-1.17 686.01-2.12 684.56-3.08 682.77-4.44L682.77-4.44 687.58-8.37Q688.24-7.13 689.33-6.12 690.42-5.1 691.59-4.37 692.76-3.64 693.86-3.25 694.96-2.86 695.64-2.86L695.64-2.86Q696.2-2.86 696.91-2.89 697.62-2.93 698.35-3.04 699.08-3.15 699.79-3.37 700.5-3.59 701.05-3.97 701.6-4.35 701.93-4.92 702.26-5.49 702.26-6.3L702.26-6.3Q702.26-7.13 701.83-7.75 701.4-8.37 700.72-8.84 700.04-9.3 699.16-9.62 698.28-9.94 697.39-10.18 696.5-10.42 695.67-10.61 694.83-10.79 694.22-10.96L694.22-10.96Q693.1-11.28 691.86-11.61 690.61-11.94 689.39-12.37 688.17-12.79 687.06-13.38 685.95-13.96 685.11-14.78 684.26-15.6 683.76-16.71 683.26-17.82 683.26-19.31L683.26-19.31Q683.26-22.05 684.35-23.89 685.44-25.73 687.22-26.84 689-27.95 691.27-28.42 693.54-28.88 695.88-28.88L695.88-28.88Q697.5-28.88 699.28-28.55 701.06-28.22 702.75-27.58 704.43-26.93 705.89-26 707.36-25.07 708.34-23.88L708.34-23.88 703.53-19.92Q702.99-21.39 702.12-22.44 701.26-23.49 700.24-24.16 699.23-24.83 698.17-25.15 697.11-25.46 696.2-25.46L696.2-25.46Q695.32-25.46 694.22-25.39 693.13-25.32 692.16-24.98 691.2-24.63 690.53-23.94 689.85-23.24 689.85-22.02L689.85-22.02Q689.85-21.14 690.26-20.52 690.66-19.9 691.32-19.45 691.98-18.99 692.82-18.69 693.66-18.38 694.54-18.15 695.42-17.92 696.25-17.75 697.08-17.58 697.74-17.38L697.74-17.38Q698.86-17.07 700.12-16.74 701.38-16.41 702.6-15.98 703.82-15.55 704.95-14.98 706.09-14.4 706.94-13.57 707.8-12.74 708.31-11.63 708.82-10.52 708.82-9.01Z" opacity="1" transform="matrix(1,0,0,1,0,0)" fill="#21272d" class="slogan-text-1" data-fill-palette-color="secondary" id="text-1"></path></svg></g></svg></g></svg></g></svg></g><g transform="matrix(1,0,0,1,71.6966526606214,0)"><svg viewBox="0 0 48.60669467875721 57.94175524620064" height="57.94175524620064" width="48.60669467875721"><g><svg xmlns="http://www.w3.org/2000/svg" xmlns:xlink="http://www.w3.org/1999/xlink" version="1.1" x="0" y="0" viewBox="12.3 5 75.5 90" style="enable-background:new 0 0 100 100;" xml:space="preserve" height="57.94175524620064" width="48.60669467875721" class="icon-icon-0" data-fill-palette-color="accent" id="icon-0"><path d="M76.1 10.8H15.2V92.1H12.3V95H87.8V92.1H84.8V10.8zM32.6 54H23.9V48.2H32.6zM32.6 39.5H23.9V33.7H32.6zM32.6 25H23.9V19.2H32.6zM52.9 19.2H61.6V25H52.9zM52.9 33.7H61.6V39.5H52.9zM52.9 48.2H61.6V54H52.9zM38.4 19.2H47.1V25H38.4zM38.4 33.7H47.1V39.5H38.4zM38.4 48.2H47.1V54H38.4zM50 86.6C43.5 86.6 38.2 81.3 38.2 74.8S43.6 63.1 50 63.1C56.5 63.1 61.8 68.4 61.8 74.9S56.5 86.6 50 86.6M76.1 54H67.4V48.2H76.1zM76.1 39.5H67.4V33.7H76.1zM76.1 25H67.4V19.2H76.1z" fill="#ea5141" data-fill-palette-color="accent"></path><rect x="26.8" y="5" width="2.9" height="5.8" fill="#ea5141" data-fill-palette-color="accent"></rect><rect x="61.6" y="7.9" width="11.6" height="2.9" fill="#ea5141" data-fill-palette-color="accent"></rect><path d="M49.3 81.4V79.8C48.3 79.8 47.3 79.5 46.7 79.1L47.1 77.6C47.7 78 48.6 78.3 49.6 78.3S51.3 77.8 51.3 77C51.3 76.3 50.7 75.8 49.6 75.4 47.9 74.8 46.8 74 46.8 72.5 46.8 71.1 47.8 70.1 49.4 69.8V68.2H50.7V69.7C51.7 69.7 52.4 70 52.9 70.2L52.5 71.7C52.1 71.5 51.4 71.2 50.3 71.2S48.8 71.8 48.8 72.3C48.8 73 49.4 73.3 50.7 73.9 52.5 74.6 53.3 75.4 53.3 76.9 53.3 78.3 52.4 79.5 50.6 79.8V81.5H49.3z" fill="#ea5141" data-fill-palette-color="accent"></path></svg></g></svg></g><g></g></svg></g></svg></g></svg></g></svg></g><defs></defs></svg><rect width="320" height="360" fill="none" stroke="none" visibility="hidden"></rect></g></svg></g></svg>